<svg width="70" height="70" viewBox="0 0 70 70" fill="none" xmlns="http://www.w3.org/2000/svg">
<rect width="70" height="70" fill="url(#paint0_linear_277_403)"/>
<mask id="path-1-outside-1_277_403" maskUnits="userSpaceOnUse" x="9" y="22" width="52" height="28" fill="black">
<rect fill="white" x="9" y="22" width="52" height="28"/>
<path d="M19.5 38.3636H24.4091L26.1818 40.5909L29.1818 44L33.0909 48.7273H27.5L24.7273 45.5L22.8636 42.8182L19.5 38.3636ZM33.0455 35.3636C33.0455 37.9545 32.5417 40.1402 31.5341 41.9205C30.5265 43.6932 29.1667 45.0379 27.4545 45.9545C25.7424 46.8636 23.8333 47.3182 21.7273 47.3182C19.6061 47.3182 17.6894 46.8598 15.9773 45.9432C14.2727 45.0189 12.9167 43.6705 11.9091 41.8977C10.9091 40.1174 10.4091 37.9394 10.4091 35.3636C10.4091 32.7727 10.9091 30.5909 11.9091 28.8182C12.9167 27.0379 14.2727 25.6932 15.9773 24.7841C17.6894 23.8674 19.6061 23.4091 21.7273 23.4091C23.8333 23.4091 25.7424 23.8674 27.4545 24.7841C29.1667 25.6932 30.5265 27.0379 31.5341 28.8182C32.5417 30.5909 33.0455 32.7727 33.0455 35.3636ZM26.5455 35.3636C26.5455 33.9697 26.3598 32.7955 25.9886 31.8409C25.625 30.8788 25.0833 30.1515 24.3636 29.6591C23.6515 29.1591 22.7727 28.9091 21.7273 28.9091C20.6818 28.9091 19.7992 29.1591 19.0795 29.6591C18.3674 30.1515 17.8258 30.8788 17.4545 31.8409C17.0909 32.7955 16.9091 33.9697 16.9091 35.3636C16.9091 36.7576 17.0909 37.9356 17.4545 38.8977C17.8258 39.8523 18.3674 40.5795 19.0795 41.0795C19.7992 41.572 20.6818 41.8182 21.7273 41.8182C22.7727 41.8182 23.6515 41.572 24.3636 41.0795C25.0833 40.5795 25.625 39.8523 25.9886 38.8977C26.3598 37.9356 26.5455 36.7576 26.5455 35.3636ZM45 38.3636H49.9091L51.6818 40.5909L54.6818 44L58.5909 48.7273H53L50.2273 45.5L48.3636 42.8182L45 38.3636ZM58.5455 35.3636C58.5455 37.9545 58.0417 40.1402 57.0341 41.9205C56.0265 43.6932 54.6667 45.0379 52.9545 45.9545C51.2424 46.8636 49.3333 47.3182 47.2273 47.3182C45.1061 47.3182 43.1894 46.8598 41.4773 45.9432C39.7727 45.0189 38.4167 43.6705 37.4091 41.8977C36.4091 40.1174 35.9091 37.9394 35.9091 35.3636C35.9091 32.7727 36.4091 30.5909 37.4091 28.8182C38.4167 27.0379 39.7727 25.6932 41.4773 24.7841C43.1894 23.8674 45.1061 23.4091 47.2273 23.4091C49.3333 23.4091 51.2424 23.8674 52.9545 24.7841C54.6667 25.6932 56.0265 27.0379 57.0341 28.8182C58.0417 30.5909 58.5455 32.7727 58.5455 35.3636ZM52.0455 35.3636C52.0455 33.9697 51.8598 32.7955 51.4886 31.8409C51.125 30.8788 50.5833 30.1515 49.8636 29.6591C49.1515 29.1591 48.2727 28.9091 47.2273 28.9091C46.1818 28.9091 45.2992 29.1591 44.5795 29.6591C43.8674 30.1515 43.3258 30.8788 42.9545 31.8409C42.5909 32.7955 42.4091 33.9697 42.4091 35.3636C42.4091 36.7576 42.5909 37.9356 42.9545 38.8977C43.3258 39.8523 43.8674 40.5795 44.5795 41.0795C45.2992 41.572 46.1818 41.8182 47.2273 41.8182C48.2727 41.8182 49.1515 41.572 49.8636 41.0795C50.5833 40.5795 51.125 39.8523 51.4886 38.8977C51.8598 37.9356 52.0455 36.7576 52.0455 35.3636Z"/>
</mask>
<path d="M19.5 38.3636H24.4091L26.1818 40.5909L29.1818 44L33.0909 48.7273H27.5L24.7273 45.5L22.8636 42.8182L19.5 38.3636ZM33.0455 35.3636C33.0455 37.9545 32.5417 40.1402 31.5341 41.9205C30.5265 43.6932 29.1667 45.0379 27.4545 45.9545C25.7424 46.8636 23.8333 47.3182 21.7273 47.3182C19.6061 47.3182 17.6894 46.8598 15.9773 45.9432C14.2727 45.0189 12.9167 43.6705 11.9091 41.8977C10.9091 40.1174 10.4091 37.9394 10.4091 35.3636C10.4091 32.7727 10.9091 30.5909 11.9091 28.8182C12.9167 27.0379 14.2727 25.6932 15.9773 24.7841C17.6894 23.8674 19.6061 23.4091 21.7273 23.4091C23.8333 23.4091 25.7424 23.8674 27.4545 24.7841C29.1667 25.6932 30.5265 27.0379 31.5341 28.8182C32.5417 30.5909 33.0455 32.7727 33.0455 35.3636ZM26.5455 35.3636C26.5455 33.9697 26.3598 32.7955 25.9886 31.8409C25.625 30.8788 25.0833 30.1515 24.3636 29.6591C23.6515 29.1591 22.7727 28.9091 21.7273 28.9091C20.6818 28.9091 19.7992 29.1591 19.0795 29.6591C18.3674 30.1515 17.8258 30.8788 17.4545 31.8409C17.0909 32.7955 16.9091 33.9697 16.9091 35.3636C16.9091 36.7576 17.0909 37.9356 17.4545 38.8977C17.8258 39.8523 18.3674 40.5795 19.0795 41.0795C19.7992 41.572 20.6818 41.8182 21.7273 41.8182C22.7727 41.8182 23.6515 41.572 24.3636 41.0795C25.0833 40.5795 25.625 39.8523 25.9886 38.8977C26.3598 37.9356 26.5455 36.7576 26.5455 35.3636ZM45 38.3636H49.9091L51.6818 40.5909L54.6818 44L58.5909 48.7273H53L50.2273 45.5L48.3636 42.8182L45 38.3636ZM58.5455 35.3636C58.5455 37.9545 58.0417 40.1402 57.0341 41.9205C56.0265 43.6932 54.6667 45.0379 52.9545 45.9545C51.2424 46.8636 49.3333 47.3182 47.2273 47.3182C45.1061 47.3182 43.1894 46.8598 41.4773 45.9432C39.7727 45.0189 38.4167 43.6705 37.4091 41.8977C36.4091 40.1174 35.9091 37.9394 35.9091 35.3636C35.9091 32.7727 36.4091 30.5909 37.4091 28.8182C38.4167 27.0379 39.7727 25.6932 41.4773 24.7841C43.1894 23.8674 45.1061 23.4091 47.2273 23.4091C49.3333 23.4091 51.2424 23.8674 52.9545 24.7841C54.6667 25.6932 56.0265 27.0379 57.0341 28.8182C58.0417 30.5909 58.5455 32.7727 58.5455 35.3636ZM52.0455 35.3636C52.0455 33.9697 51.8598 32.7955 51.4886 31.8409C51.125 30.8788 50.5833 30.1515 49.8636 29.6591C49.1515 29.1591 48.2727 28.9091 47.2273 28.9091C46.1818 28.9091 45.2992 29.1591 44.5795 29.6591C43.8674 30.1515 43.3258 30.8788 42.9545 31.8409C42.5909 32.7955 42.4091 33.9697 42.4091 35.3636C42.4091 36.7576 42.5909 37.9356 42.9545 38.8977C43.3258 39.8523 43.8674 40.5795 44.5795 41.0795C45.2992 41.572 46.1818 41.8182 47.2273 41.8182C48.2727 41.8182 49.1515 41.572 49.8636 41.0795C50.5833 40.5795 51.125 39.8523 51.4886 38.8977C51.8598 37.9356 52.0455 36.7576 52.0455 35.3636Z" fill="#A58F8F"/>
<path d="M19.5 38.3636V37.3636H17.4918L18.702 38.9662L19.5 38.3636ZM24.4091 38.3636L25.1915 37.7409L24.8913 37.3636H24.4091V38.3636ZM26.1818 40.5909L25.3994 41.2137L25.4148 41.233L25.4311 41.2515L26.1818 40.5909ZM29.1818 44L29.9525 43.3627L29.9427 43.3509L29.9325 43.3394L29.1818 44ZM33.0909 48.7273V49.7273H35.2154L33.8616 48.09L33.0909 48.7273ZM27.5 48.7273L26.7415 49.3789L27.0408 49.7273H27.5V48.7273ZM24.7273 45.5L23.9061 46.0707L23.9354 46.1128L23.9688 46.1517L24.7273 45.5ZM22.8636 42.8182L23.6848 42.2475L23.6736 42.2313L23.6617 42.2156L22.8636 42.8182ZM31.5341 41.9205L32.4035 42.4146L32.4044 42.413L31.5341 41.9205ZM27.4545 45.9545L27.9235 46.8378L27.9266 46.8361L27.4545 45.9545ZM15.9773 45.9432L15.5006 46.8223L15.5053 46.8248L15.9773 45.9432ZM11.9091 41.8977L11.0372 42.3875L11.0397 42.3919L11.9091 41.8977ZM11.9091 28.8182L11.0388 28.3256L11.0381 28.3269L11.9091 28.8182ZM15.9773 24.7841L16.4479 25.6664L16.4493 25.6657L15.9773 24.7841ZM27.4545 24.7841L26.9825 25.6657L26.9856 25.6673L27.4545 24.7841ZM31.5341 28.8182L30.6638 29.3107L30.6647 29.3123L31.5341 28.8182ZM25.9886 31.8409L25.0532 32.1945L25.0566 32.2034L25.9886 31.8409ZM24.3636 29.6591L23.789 30.4776L23.799 30.4844L24.3636 29.6591ZM19.0795 29.6591L19.6483 30.4816L19.6501 30.4803L19.0795 29.6591ZM17.4545 31.8409L16.5216 31.4809L16.5201 31.4849L17.4545 31.8409ZM17.4545 38.8977L16.5191 39.2513L16.5225 39.2602L17.4545 38.8977ZM19.0795 41.0795L18.5049 41.898L18.5149 41.9049L19.0795 41.0795ZM24.3636 41.0795L24.9324 41.9021L24.9342 41.9008L24.3636 41.0795ZM25.9886 38.8977L25.0557 38.5378L25.0541 38.5417L25.9886 38.8977ZM19.5 39.3636H24.4091V37.3636H19.5V39.3636ZM23.6267 38.9864L25.3994 41.2137L26.9642 39.9682L25.1915 37.7409L23.6267 38.9864ZM25.4311 41.2515L28.4311 44.6606L29.9325 43.3394L26.9325 39.9303L25.4311 41.2515ZM28.4112 44.6373L32.3203 49.3645L33.8616 48.09L29.9525 43.3627L28.4112 44.6373ZM33.0909 47.7273H27.5V49.7273H33.0909V47.7273ZM28.2585 48.0756L25.4858 44.8483L23.9688 46.1517L26.7415 49.3789L28.2585 48.0756ZM25.5485 44.9293L23.6848 42.2475L22.0424 43.3888L23.9061 46.0707L25.5485 44.9293ZM23.6617 42.2156L20.298 37.761L18.702 38.9662L22.0656 43.4208L23.6617 42.2156ZM32.0455 35.3636C32.0455 37.8271 31.5666 39.8328 30.6638 41.4279L32.4044 42.413C33.5168 40.4475 34.0455 38.082 34.0455 35.3636H32.0455ZM30.6647 41.4263C29.7455 43.0436 28.5198 44.2499 26.9825 45.0729L27.9266 46.8361C29.8135 45.8258 31.3075 44.3428 32.4035 42.4146L30.6647 41.4263ZM26.9856 45.0713C25.4301 45.8972 23.6843 46.3182 21.7273 46.3182V48.3182C23.9824 48.3182 26.0547 47.83 27.9235 46.8378L26.9856 45.0713ZM21.7273 46.3182C19.7552 46.3182 18.0031 45.8935 16.4493 45.0616L15.5053 46.8248C17.3757 47.8262 19.4569 48.3182 21.7273 48.3182V46.3182ZM16.4539 45.0641C14.9224 44.2336 13.6987 43.0226 12.7785 41.4036L11.0397 42.3919C12.1347 44.3183 13.6231 45.8042 15.5006 46.8223L16.4539 45.0641ZM12.781 41.408C11.8842 39.8115 11.4091 37.8119 11.4091 35.3636H9.40909C9.40909 38.0669 9.93399 40.4234 11.0372 42.3875L12.781 41.408ZM11.4091 35.3636C11.4091 32.8988 11.8847 30.8967 12.7801 29.3095L11.0381 28.3269C9.93346 30.2851 9.40909 32.6466 9.40909 35.3636H11.4091ZM12.7794 29.3107C13.6992 27.6855 14.9209 26.4808 16.4479 25.6664L15.5067 23.9017C13.6246 24.9055 12.1341 26.3903 11.0388 28.3256L12.7794 29.3107ZM16.4493 25.6657C18.0031 24.8338 19.7552 24.4091 21.7273 24.4091V22.4091C19.4569 22.4091 17.3757 22.9011 15.5053 23.9025L16.4493 25.6657ZM21.7273 24.4091C23.6829 24.4091 25.4277 24.8332 26.9825 25.6657L27.9266 23.9025C26.0572 22.9016 23.9838 22.4091 21.7273 22.4091V24.4091ZM26.9856 25.6673C28.52 26.482 29.7446 27.6866 30.6638 29.3107L32.4044 28.3256C31.3084 26.3892 29.8134 24.9043 27.9235 23.9009L26.9856 25.6673ZM30.6647 29.3123C31.5665 30.8989 32.0455 32.9 32.0455 35.3636H34.0455C34.0455 32.6455 33.5168 30.2829 32.4035 28.324L30.6647 29.3123ZM27.5455 35.3636C27.5455 33.8876 27.3498 32.582 26.9206 31.4785L25.0566 32.2034C25.3699 33.0089 25.5455 34.0518 25.5455 35.3636H27.5455ZM26.9241 31.4874C26.5014 30.369 25.8456 29.4614 24.9283 28.8338L23.799 30.4844C24.3211 30.8416 24.7486 31.3886 25.0532 32.1945L26.9241 31.4874ZM24.9383 28.8407C24.0263 28.2003 22.9361 27.9091 21.7273 27.9091V29.9091C22.6093 29.9091 23.2768 30.1178 23.789 30.4775L24.9383 28.8407ZM21.7273 27.9091C20.5181 27.9091 19.4264 28.2005 18.509 28.8378L19.6501 30.4803C20.1721 30.1177 20.8456 29.9091 21.7273 29.9091V27.9091ZM18.5108 28.8366C17.6041 29.4635 16.951 30.3681 16.5216 31.4809L18.3875 32.2009C18.7006 31.3895 19.1307 30.8395 19.6483 30.4816L18.5108 28.8366ZM16.5201 31.4849C16.1005 32.5863 15.9091 33.8895 15.9091 35.3636H17.9091C17.9091 34.0499 18.0813 33.0046 18.389 32.1969L16.5201 31.4849ZM15.9091 35.3636C15.9091 36.8382 16.1006 38.1439 16.5191 39.2513L18.39 38.5442C18.0812 37.7273 17.9091 36.6769 17.9091 35.3636H15.9091ZM16.5225 39.2602C16.9523 40.3654 17.6044 41.2657 18.5049 41.898L19.6542 40.2611C19.1305 39.8934 18.6992 39.3391 18.3866 38.5353L16.5225 39.2602ZM18.5149 41.9049C19.4316 42.5321 20.5211 42.8182 21.7273 42.8182V40.8182C20.8425 40.8182 20.1668 40.6118 19.6442 40.2542L18.5149 41.9049ZM21.7273 42.8182C22.9331 42.8182 24.021 42.5323 24.9324 41.9021L23.7949 40.257C23.282 40.6117 22.6124 40.8182 21.7273 40.8182V42.8182ZM24.9342 41.9008C25.8453 41.2678 26.5 40.3645 26.9231 39.2537L25.0541 38.5417C24.75 39.3401 24.3213 39.8913 23.7931 40.2583L24.9342 41.9008ZM26.9216 39.2577C27.3497 38.1481 27.5455 36.8401 27.5455 35.3636H25.5455C25.5455 36.6751 25.37 37.7231 25.0557 38.5378L26.9216 39.2577ZM45 38.3636V37.3636H42.9918L44.202 38.9662L45 38.3636ZM49.9091 38.3636L50.6915 37.7409L50.3913 37.3636H49.9091V38.3636ZM51.6818 40.5909L50.8994 41.2137L50.9148 41.233L50.9311 41.2515L51.6818 40.5909ZM54.6818 44L55.4525 43.3627L55.4427 43.3509L55.4325 43.3394L54.6818 44ZM58.5909 48.7273V49.7273H60.7154L59.3616 48.09L58.5909 48.7273ZM53 48.7273L52.2415 49.3789L52.5408 49.7273H53V48.7273ZM50.2273 45.5L49.4061 46.0707L49.4354 46.1128L49.4688 46.1517L50.2273 45.5ZM48.3636 42.8182L49.1848 42.2475L49.1736 42.2313L49.1617 42.2156L48.3636 42.8182ZM57.0341 41.9205L57.9035 42.4146L57.9044 42.413L57.0341 41.9205ZM52.9545 45.9545L53.4235 46.8378L53.4266 46.8361L52.9545 45.9545ZM41.4773 45.9432L41.0006 46.8223L41.0053 46.8248L41.4773 45.9432ZM37.4091 41.8977L36.5372 42.3875L36.5397 42.3919L37.4091 41.8977ZM37.4091 28.8182L36.5388 28.3256L36.5381 28.3269L37.4091 28.8182ZM41.4773 24.7841L41.9479 25.6664L41.9493 25.6657L41.4773 24.7841ZM52.9545 24.7841L52.4825 25.6657L52.4856 25.6673L52.9545 24.7841ZM57.0341 28.8182L56.1638 29.3107L56.1647 29.3123L57.0341 28.8182ZM51.4886 31.8409L50.5532 32.1945L50.5566 32.2034L51.4886 31.8409ZM49.8636 29.6591L49.289 30.4776L49.299 30.4844L49.8636 29.6591ZM44.5795 29.6591L45.1483 30.4816L45.1501 30.4803L44.5795 29.6591ZM42.9545 31.8409L42.0216 31.4809L42.0201 31.4849L42.9545 31.8409ZM42.9545 38.8977L42.0191 39.2513L42.0225 39.2602L42.9545 38.8977ZM44.5795 41.0795L44.0049 41.898L44.0149 41.9049L44.5795 41.0795ZM49.8636 41.0795L50.4324 41.9021L50.4342 41.9008L49.8636 41.0795ZM51.4886 38.8977L50.5557 38.5378L50.5541 38.5417L51.4886 38.8977ZM45 39.3636H49.9091V37.3636H45V39.3636ZM49.1267 38.9864L50.8994 41.2137L52.4642 39.9682L50.6915 37.7409L49.1267 38.9864ZM50.9311 41.2515L53.9311 44.6606L55.4325 43.3394L52.4325 39.9303L50.9311 41.2515ZM53.9112 44.6373L57.8203 49.3645L59.3616 48.09L55.4525 43.3627L53.9112 44.6373ZM58.5909 47.7273H53V49.7273H58.5909V47.7273ZM53.7585 48.0756L50.9858 44.8483L49.4688 46.1517L52.2415 49.3789L53.7585 48.0756ZM51.0485 44.9293L49.1848 42.2475L47.5424 43.3888L49.4061 46.0707L51.0485 44.9293ZM49.1617 42.2156L45.798 37.761L44.202 38.9662L47.5656 43.4208L49.1617 42.2156ZM57.5455 35.3636C57.5455 37.8271 57.0666 39.8328 56.1638 41.4279L57.9044 42.413C59.0168 40.4475 59.5455 38.082 59.5455 35.3636H57.5455ZM56.1647 41.4263C55.2455 43.0436 54.0198 44.2499 52.4825 45.0729L53.4266 46.8361C55.3135 45.8258 56.8075 44.3428 57.9035 42.4146L56.1647 41.4263ZM52.4856 45.0713C50.9301 45.8972 49.1843 46.3182 47.2273 46.3182V48.3182C49.4824 48.3182 51.5547 47.83 53.4235 46.8378L52.4856 45.0713ZM47.2273 46.3182C45.2552 46.3182 43.5031 45.8935 41.9493 45.0616L41.0053 46.8248C42.8757 47.8262 44.9569 48.3182 47.2273 48.3182V46.3182ZM41.9539 45.0641C40.4224 44.2336 39.1987 43.0226 38.2785 41.4036L36.5397 42.3919C37.6347 44.3183 39.1231 45.8042 41.0006 46.8223L41.9539 45.0641ZM38.281 41.408C37.3842 39.8115 36.9091 37.8119 36.9091 35.3636H34.9091C34.9091 38.0669 35.434 40.4234 36.5372 42.3875L38.281 41.408ZM36.9091 35.3636C36.9091 32.8988 37.3847 30.8967 38.2801 29.3095L36.5381 28.3269C35.4335 30.2851 34.9091 32.6466 34.9091 35.3636H36.9091ZM38.2794 29.3107C39.1992 27.6855 40.4209 26.4808 41.9479 25.6664L41.0067 23.9017C39.1246 24.9055 37.6341 26.3903 36.5388 28.3256L38.2794 29.3107ZM41.9493 25.6657C43.5031 24.8338 45.2552 24.4091 47.2273 24.4091V22.4091C44.9569 22.4091 42.8757 22.9011 41.0053 23.9025L41.9493 25.6657ZM47.2273 24.4091C49.1829 24.4091 50.9277 24.8332 52.4825 25.6657L53.4266 23.9025C51.5572 22.9016 49.4838 22.4091 47.2273 22.4091V24.4091ZM52.4856 25.6673C54.02 26.482 55.2446 27.6866 56.1638 29.3107L57.9044 28.3256C56.8084 26.3892 55.3134 24.9043 53.4235 23.9009L52.4856 25.6673ZM56.1647 29.3123C57.0665 30.8989 57.5455 32.9 57.5455 35.3636H59.5455C59.5455 32.6455 59.0168 30.2829 57.9035 28.324L56.1647 29.3123ZM53.0455 35.3636C53.0455 33.8876 52.8498 32.582 52.4206 31.4785L50.5566 32.2034C50.8699 33.0089 51.0455 34.0518 51.0455 35.3636H53.0455ZM52.4241 31.4874C52.0014 30.369 51.3456 29.4614 50.4283 28.8338L49.299 30.4844C49.8211 30.8416 50.2486 31.3886 50.5532 32.1945L52.4241 31.4874ZM50.4383 28.8407C49.5263 28.2003 48.4361 27.9091 47.2273 27.9091V29.9091C48.1093 29.9091 48.7768 30.1178 49.289 30.4775L50.4383 28.8407ZM47.2273 27.9091C46.0181 27.9091 44.9264 28.2005 44.009 28.8378L45.1501 30.4803C45.6721 30.1177 46.3456 29.9091 47.2273 29.9091V27.9091ZM44.0108 28.8366C43.1041 29.4635 42.451 30.3681 42.0216 31.4809L43.8875 32.2009C44.2006 31.3895 44.6307 30.8395 45.1483 30.4816L44.0108 28.8366ZM42.0201 31.4849C41.6005 32.5863 41.4091 33.8895 41.4091 35.3636H43.4091C43.4091 34.0499 43.5813 33.0046 43.889 32.1969L42.0201 31.4849ZM41.4091 35.3636C41.4091 36.8382 41.6006 38.1439 42.0191 39.2513L43.89 38.5442C43.5812 37.7273 43.4091 36.6769 43.4091 35.3636H41.4091ZM42.0225 39.2602C42.4523 40.3654 43.1044 41.2657 44.0049 41.898L45.1542 40.2611C44.6305 39.8934 44.1992 39.3391 43.8866 38.5353L42.0225 39.2602ZM44.0149 41.9049C44.9316 42.5321 46.0211 42.8182 47.2273 42.8182V40.8182C46.3425 40.8182 45.6668 40.6118 45.1442 40.2542L44.0149 41.9049ZM47.2273 42.8182C48.4331 42.8182 49.521 42.5323 50.4324 41.9021L49.2949 40.257C48.782 40.6117 48.1124 40.8182 47.2273 40.8182V42.8182ZM50.4342 41.9008C51.3453 41.2678 52 40.3645 52.4231 39.2537L50.5541 38.5417C50.25 39.3401 49.8213 39.8913 49.2931 40.2583L50.4342 41.9008ZM52.4216 39.2577C52.8497 38.1481 53.0455 36.8401 53.0455 35.3636H51.0455C51.0455 36.6751 50.87 37.7231 50.5557 38.5378L52.4216 39.2577Z" fill="black" mask="url(#path-1-outside-1_277_403)"/>
<defs>
<linearGradient id="paint0_linear_277_403" x1="70" y1="2.40694e-06" x2="-3.26836" y2="64.7911" gradientUnits="userSpaceOnUse">
<stop offset="0.0284579" stop-color="#937575"/>
<stop offset="1" stop-color="#2D2424"/>
</linearGradient>
</defs>
</svg>
